<svg width="22" height="23" viewBox="0 0 22 23" fill="none" xmlns="http://www.w3.org/2000/svg">
<path opacity="0.7" d="M16.8153 8.48419C16.1672 8.48419 15.6429 9.00852 15.6429 9.65569V13.8082C15.6429 14.1191 15.7664 14.4173 15.9863 14.6372C16.2061 14.8571 16.5043 14.9806 16.8153 14.9806C17.1262 14.9806 17.4244 14.8571 17.6443 14.6372C17.8642 14.4173 17.9877 14.1191 17.9877 13.8082V9.65569C17.9877 9.00852 17.4634 8.48419 16.8153 8.48419ZM5.18462 8.48419C4.53654 8.48419 4.01221 9.00852 4.01221 9.65569V13.8082C4.01221 14.1191 4.13573 14.4173 4.3556 14.6372C4.57547 14.8571 4.87368 14.9806 5.18462 14.9806C5.49557 14.9806 5.79378 14.8571 6.01365 14.6372C6.23352 14.4173 6.35704 14.1191 6.35704 13.8082V9.65569C6.35716 9.50173 6.32691 9.34927 6.26802 9.20702C6.20914 9.06477 6.12277 8.93554 6.01386 8.82672C5.90496 8.7179 5.77565 8.63163 5.63336 8.57285C5.49107 8.51408 5.33858 8.48395 5.18462 8.48419ZM13.3329 4.9926L14.0369 3.72027C14.0575 3.68405 14.0706 3.6441 14.0756 3.60274C14.0806 3.56138 14.0774 3.51944 14.066 3.47935C14.0547 3.43927 14.0355 3.40184 14.0096 3.36923C13.9836 3.33663 13.9515 3.30951 13.915 3.28944C13.8786 3.26891 13.8384 3.25582 13.7969 3.25094C13.7554 3.24606 13.7134 3.24947 13.6732 3.26099C13.633 3.2725 13.5955 3.29188 13.5629 3.31801C13.5303 3.34414 13.5032 3.37649 13.4832 3.41319L12.76 4.71485C12.221 4.49944 11.627 4.37752 11 4.37752C10.373 4.37752 9.77896 4.49852 9.23996 4.71394L8.51671 3.4141C8.49671 3.37741 8.46961 3.34506 8.43699 3.31893C8.40438 3.2928 8.36689 3.27342 8.32672 3.2619C8.28655 3.25039 8.24449 3.24697 8.20298 3.25186C8.16148 3.25674 8.12136 3.26983 8.08496 3.29035C8.04863 3.3106 8.01665 3.33782 7.99085 3.37044C7.96506 3.40307 7.94595 3.44046 7.93463 3.48048C7.9233 3.5205 7.91998 3.56236 7.92486 3.60366C7.92973 3.64497 7.94271 3.6849 7.96304 3.72119L8.66704 4.99352C7.39929 5.71585 6.55229 7.00744 6.55229 8.48419C6.55229 8.49427 6.55229 8.50344 6.55412 8.51535C6.55229 8.52085 6.55229 8.52727 6.55229 8.53277V8.53369H15.4467V8.48419C15.4476 7.00744 14.6006 5.71677 13.3329 4.9926ZM8.94662 6.7966C8.90491 6.7963 8.86367 6.78779 8.82525 6.77155C8.78683 6.75531 8.75198 6.73166 8.7227 6.70195C8.66356 6.64196 8.63068 6.56093 8.63129 6.47669C8.6319 6.39245 8.66595 6.3119 8.72594 6.25276C8.78594 6.19363 8.86697 6.16075 8.95121 6.16135C9.03545 6.16196 9.11599 6.19601 9.17513 6.256C9.23427 6.316 9.26715 6.39703 9.26654 6.48127C9.26593 6.56551 9.23189 6.64606 9.17189 6.70519C9.11189 6.76433 9.03086 6.79721 8.94662 6.7966ZM13.0533 6.7966C12.9733 6.79052 12.8986 6.75447 12.8441 6.69566C12.7896 6.63685 12.7593 6.55962 12.7593 6.47944C12.7593 6.39925 12.7896 6.32203 12.8441 6.26322C12.8986 6.20441 12.9733 6.16835 13.0533 6.16227C13.1374 6.16227 13.2181 6.19569 13.2776 6.25517C13.337 6.31465 13.3705 6.39532 13.3705 6.47944C13.3705 6.56355 13.337 6.64423 13.2776 6.70371C13.2181 6.76319 13.1374 6.7966 13.0533 6.7966ZM6.55229 15.2767C6.55229 15.8689 7.03354 16.3501 7.62846 16.3501H8.16562V18.551C8.16562 18.862 8.28915 19.1602 8.50902 19.38C8.72889 19.5999 9.0271 19.7234 9.33804 19.7234C9.64898 19.7234 9.94719 19.5999 10.1671 19.38C10.3869 19.1602 10.5105 18.862 10.5105 18.551V16.3501H11.4876V18.551C11.4876 19.1991 12.012 19.7225 12.6582 19.7225C13.3081 19.7225 13.8325 19.1991 13.8325 18.551V16.3501H14.3696C14.9636 16.3501 15.4458 15.8698 15.4458 15.2767V8.77569H6.55229V15.2767Z" fill="#71DD37"/>
</svg>
