<svg width="22" height="23" viewBox="0 0 22 23" fill="none" xmlns="http://www.w3.org/2000/svg">
<path opacity="0.7" d="M18.0262 15.9102C17.7724 16.5019 17.4588 17.0661 17.0903 17.5941C16.598 18.2972 16.1938 18.783 15.884 19.0534C15.4027 19.4953 14.8857 19.7226 14.333 19.7354C13.937 19.7354 13.4585 19.6227 12.9011 19.3935C12.342 19.1653 11.8286 19.0534 11.3584 19.0534C10.8661 19.0534 10.3381 19.1653 9.77255 19.3935C9.20788 19.6227 8.75138 19.7428 8.40213 19.7538C7.87322 19.7767 7.3443 19.5439 6.81722 19.0534C6.4808 18.7601 6.06005 18.2559 5.55497 17.5428C5.01413 16.7829 4.56955 15.8983 4.22122 14.8927C3.84813 13.8046 3.66113 12.7523 3.66113 11.7329C3.66113 10.566 3.91322 9.5586 4.4183 8.71527C4.80032 8.05295 5.34647 7.50017 6.00413 7.11019C6.65264 6.72122 7.39296 6.51178 8.14913 6.50335C8.5708 6.50335 9.12355 6.63352 9.8083 6.89019C10.493 7.14685 10.933 7.27702 11.1246 7.27702C11.2695 7.27702 11.7562 7.12394 12.5849 6.82052C13.3668 6.5391 14.0268 6.42269 14.5676 6.46852C16.0343 6.58677 17.1352 7.16427 17.8676 8.2056C16.5568 9.00035 15.9087 10.1123 15.9215 11.5395C15.9325 12.6514 16.3368 13.5764 17.1288 14.3106C17.4789 14.6457 17.8875 14.9138 18.3342 15.1017C18.237 15.3831 18.1344 15.6517 18.0262 15.9102ZM14.6648 2.68177C14.6648 3.5526 14.3458 4.3666 13.7124 5.11919C12.946 6.01385 12.0202 6.53177 11.0165 6.45019C11.0033 6.34068 10.9969 6.23048 10.9972 6.12019C10.9972 5.28327 11.3602 4.3886 12.0083 3.65619C12.331 3.28585 12.7416 2.97694 13.2394 2.73127C13.7362 2.48927 14.2055 2.35544 14.6474 2.33252C14.6593 2.44985 14.6648 2.56627 14.6648 2.68177Z" fill="#8592A3"/>
</svg>
