<svg width="20" height="20" viewBox="0 0 20 20" fill="none" xmlns="http://www.w3.org/2000/svg">
<path opacity="0.7" d="M15.8333 11.3216V8.33329C15.8333 5.65246 14.0125 3.39413 11.5458 2.71496C11.3017 2.09996 10.705 1.66663 10 1.66663C9.295 1.66663 8.69833 2.09996 8.45417 2.71496C5.9875 3.39496 4.16667 5.65246 4.16667 8.33329V11.3216L2.74417 12.7441C2.66663 12.8214 2.60514 12.9132 2.56324 13.0143C2.52133 13.1154 2.49984 13.2238 2.5 13.3333V15C2.5 15.221 2.5878 15.4329 2.74408 15.5892C2.90036 15.7455 3.11232 15.8333 3.33333 15.8333H16.6667C16.8877 15.8333 17.0996 15.7455 17.2559 15.5892C17.4122 15.4329 17.5 15.221 17.5 15V13.3333C17.5002 13.2238 17.4787 13.1154 17.4368 13.0143C17.3949 12.9132 17.3334 12.8214 17.2558 12.7441L15.8333 11.3216ZM15.8333 14.1666H4.16667V13.6783L5.58917 12.2558C5.6667 12.1785 5.72819 12.0867 5.7701 11.9856C5.812 11.8845 5.83349 11.7761 5.83333 11.6666V8.33329C5.83333 6.03579 7.7025 4.16663 10 4.16663C12.2975 4.16663 14.1667 6.03579 14.1667 8.33329V11.6666C14.1667 11.8883 14.2542 12.1 14.4108 12.2558L15.8333 13.6783V14.1666ZM10 18.3333C10.5161 18.3339 11.0195 18.1738 11.4404 17.8751C11.8613 17.5764 12.1786 17.154 12.3483 16.6666H7.65167C7.82139 17.154 8.13873 17.5764 8.55959 17.8751C8.98045 18.1738 9.48392 18.3339 10 18.3333V18.3333Z" fill="#32475C" fill-opacity="0.87"/>
</svg>
