<svg width="18" height="18" viewBox="0 0 18 18" fill="none" xmlns="http://www.w3.org/2000/svg">
<path d="M5.25 12.7598L8.55975 12.7485L15.7838 5.59355C16.0673 5.31005 16.2233 4.93355 16.2233 4.53305C16.2233 4.13255 16.0673 3.75605 15.7838 3.47255L14.5943 2.28305C14.0273 1.71605 13.038 1.71905 12.4755 2.2808L5.25 9.4373V12.7598V12.7598ZM13.5338 3.34355L14.7255 4.5308L13.5278 5.7173L12.3383 4.52855L13.5338 3.34355ZM6.75 10.0628L11.2725 5.58305L12.462 6.77255L7.94025 11.2508L6.75 11.2545V10.0628Z" fill="#03C3EC"/>
<path d="M3.75 15.75H14.25C15.0773 15.75 15.75 15.0773 15.75 14.25V7.749L14.25 9.249V14.25H6.1185C6.099 14.25 6.07875 14.2575 6.05925 14.2575C6.0345 14.2575 6.00975 14.2508 5.98425 14.25H3.75V3.75H8.88525L10.3853 2.25H3.75C2.92275 2.25 2.25 2.92275 2.25 3.75V14.25C2.25 15.0773 2.92275 15.75 3.75 15.75Z" fill="#03C3EC"/>
</svg>
