<svg width="24" height="25" viewBox="0 0 24 25" fill="none" xmlns="http://www.w3.org/2000/svg">
<path d="M12 9.39999C11.206 9.40524 10.4459 9.72299 9.88447 10.2845C9.32299 10.8459 9.00524 11.606 9 12.4C9 14.042 10.358 15.4 12 15.4C13.641 15.4 15 14.042 15 12.4C15 10.759 13.641 9.39999 12 9.39999Z" fill="#32475C" fill-opacity="0.54"/>
<path d="M12.0003 5.39999C4.36729 5.39999 2.07329 12.017 2.05229 12.084L1.94629 12.4L2.05129 12.716C2.07329 12.783 4.36729 19.4 12.0003 19.4C19.6333 19.4 21.9273 12.783 21.9483 12.716L22.0543 12.4L21.9493 12.084C21.9273 12.017 19.6333 5.39999 12.0003 5.39999ZM12.0003 17.4C6.64929 17.4 4.57629 13.554 4.07429 12.4C4.57829 11.242 6.65229 7.39999 12.0003 7.39999C17.3513 7.39999 19.4243 11.246 19.9263 12.4C19.4223 13.558 17.3483 17.4 12.0003 17.4V17.4Z" fill="#32475C" fill-opacity="0.54"/>
</svg>