<svg width="21" height="20" viewBox="0 0 21 20" fill="none" xmlns="http://www.w3.org/2000/svg">
<path d="M10.7621 0.400024C5.25309 0.400024 0.788086 4.86502 0.788086 10.374C0.788086 14.78 3.64509 18.519 7.60909 19.839C8.10809 19.929 8.28809 19.622 8.28809 19.358C8.28809 19.121 8.28009 18.493 8.27709 17.662C5.50209 18.264 4.91609 16.324 4.91609 16.324C4.46409 15.172 3.80909 14.865 3.80909 14.865C2.90409 14.246 3.87809 14.26 3.87809 14.26C4.88009 14.33 5.40509 15.288 5.40509 15.288C6.29509 16.812 7.74109 16.372 8.30709 16.117C8.39809 15.472 8.65809 15.032 8.94209 14.783C6.72809 14.532 4.40009 13.676 4.40009 9.85302C4.40009 8.76602 4.78909 7.87402 5.42409 7.17802C5.32309 6.92502 4.97809 5.91002 5.52309 4.53802C5.52309 4.53802 6.36009 4.26902 8.26509 5.55902C9.06309 5.33802 9.91409 5.22702 10.7611 5.22302C11.6101 5.22702 12.4621 5.33802 13.2571 5.55902C15.1631 4.26802 15.9991 4.53802 15.9991 4.53802C16.5441 5.91002 16.2021 6.92502 16.0981 7.17802C16.7381 7.87402 17.1221 8.76502 17.1221 9.85302C17.1221 13.686 14.7921 14.528 12.5701 14.775C12.9251 15.083 13.2451 15.691 13.2451 16.621C13.2451 17.955 13.2331 19.031 13.2331 19.358C13.2331 19.625 13.4111 19.935 13.9201 19.837C17.8821 18.515 20.7361 14.779 20.7361 10.374C20.7361 4.86502 16.2711 0.400024 10.7621 0.400024Z" fill="#272727"/>
</svg>
