<svg width="19" height="19" viewBox="0 0 19 19" fill="none" xmlns="http://www.w3.org/2000/svg">
<path d="M17.9973 7.50279H9.67033V10.9538H14.4623C14.0163 13.1468 12.1493 14.4068 9.67033 14.4068C6.74733 14.4068 4.39133 12.0508 4.39133 9.12679C4.39133 6.20379 6.74733 3.84779 9.67033 3.84779C10.9293 3.84779 12.0673 4.29479 12.9603 5.02579L15.5603 2.42679C13.9763 1.04579 11.9453 0.193787 9.67033 0.193787C4.71633 0.193787 0.736328 4.17279 0.736328 9.12779C0.736328 14.0828 4.71533 18.0618 9.67033 18.0618C14.1373 18.0618 18.1993 14.8128 18.1993 9.12779C18.1993 8.59979 18.1183 8.03079 17.9973 7.50279Z" fill="#DB4437"/>
</svg>
