<svg width="20" height="20" viewBox="0 0 20 20" fill="none" xmlns="http://www.w3.org/2000/svg">
<path opacity="0.7" d="M7.05417 9.41089C7.99833 8.46672 9.645 8.46672 10.5892 9.41089L11.1783 10.0001L12.3567 8.82172L11.7675 8.23255C10.9817 7.44589 9.935 7.01172 8.82167 7.01172C7.70833 7.01172 6.66167 7.44589 5.87583 8.23255L4.1075 10.0001C3.32774 10.7823 2.88989 11.8418 2.88989 12.9463C2.88989 14.0508 3.32774 15.1103 4.1075 15.8926C4.49406 16.2797 4.95331 16.5866 5.45885 16.7957C5.96439 17.0047 6.50626 17.1119 7.05333 17.1109C7.60055 17.112 8.14259 17.005 8.64829 16.7959C9.15399 16.5868 9.61337 16.2798 10 15.8926L10.5892 15.3034L9.41083 14.1251L8.82167 14.7142C8.35206 15.1817 7.71639 15.4442 7.05375 15.4442C6.39111 15.4442 5.75544 15.1817 5.28583 14.7142C4.81792 14.2448 4.55517 13.6091 4.55517 12.9463C4.55517 12.2835 4.81792 11.6478 5.28583 11.1784L7.05417 9.41089Z" fill="#32475C" fill-opacity="0.87"/>
<path d="M9.99998 4.10745L9.41081 4.69662L10.5891 5.87495L11.1783 5.28579C11.6479 4.81828 12.2836 4.55581 12.9462 4.55581C13.6089 4.55581 14.2445 4.81828 14.7141 5.28579C15.1821 5.75518 15.4448 6.39093 15.4448 7.0537C15.4448 7.71648 15.1821 8.35223 14.7141 8.82162L12.9458 10.5891C12.0016 11.5333 10.355 11.5333 9.41081 10.5891L8.82164 9.99995L7.64331 11.1783L8.23248 11.7675C9.01831 12.5541 10.065 12.9883 11.1783 12.9883C12.2916 12.9883 13.3383 12.5541 14.1241 11.7675L15.8925 9.99995C16.6722 9.21769 17.1101 8.15822 17.1101 7.0537C17.1101 5.94919 16.6722 4.88972 15.8925 4.10745C15.1104 3.32729 14.0509 2.88916 12.9462 2.88916C11.8416 2.88916 10.782 3.32729 9.99998 4.10745V4.10745Z" fill="#32475C" fill-opacity="0.54"/>
</svg>
