<svg width="24" height="24" viewBox="0 0 24 24" fill="none" xmlns="http://www.w3.org/2000/svg">
<path d="M19 8.00008H17V11.0001H14V13.0001H17V16.0001H19V13.0001H22V11.0001H19V8.00008ZM4 8.00008C3.98768 8.52874 4.08273 9.0544 4.27939 9.54527C4.47605 10.0361 4.77024 10.482 5.14415 10.8559C5.51807 11.2298 5.96395 11.524 6.45482 11.7207C6.94569 11.9174 7.47134 12.0124 8 12.0001C8.52866 12.0124 9.05431 11.9174 9.54518 11.7207C10.0361 11.524 10.4819 11.2298 10.8558 10.8559C11.2298 10.482 11.524 10.0361 11.7206 9.54527C11.9173 9.0544 12.0123 8.52874 12 8.00008C12.0123 7.47143 11.9173 6.94577 11.7206 6.4549C11.524 5.96403 11.2298 5.51815 10.8558 5.14424C10.4819 4.77032 10.0361 4.47613 9.54518 4.27947C9.05431 4.08282 8.52866 3.98777 8 4.00008C7.47134 3.98777 6.94569 4.08282 6.45482 4.27947C5.96395 4.47613 5.51807 4.77032 5.14415 5.14424C4.77024 5.51815 4.47605 5.96403 4.27939 6.4549C4.08273 6.94577 3.98768 7.47143 4 8.00008ZM10 8.00008C10.0129 8.26613 9.96993 8.53193 9.87398 8.78041C9.77802 9.02888 9.63115 9.25454 9.4428 9.44289C9.25446 9.63123 9.0288 9.7781 8.78032 9.87406C8.53185 9.97002 8.26605 10.0129 8 10.0001C7.73395 10.0129 7.46815 9.97002 7.21968 9.87406C6.9712 9.7781 6.74554 9.63123 6.5572 9.44289C6.36885 9.25454 6.22198 9.02888 6.12602 8.78041C6.03007 8.53193 5.98714 8.26613 6 8.00008C5.98714 7.73403 6.03007 7.46824 6.12602 7.21976C6.22198 6.97128 6.36885 6.74563 6.5572 6.55728C6.74554 6.36894 6.9712 6.22207 7.21968 6.12611C7.46815 6.03015 7.73395 5.98722 8 6.00008C8.26605 5.98722 8.53185 6.03015 8.78032 6.12611C9.0288 6.22207 9.25446 6.36894 9.4428 6.55728C9.63115 6.74563 9.77802 6.97128 9.87398 7.21976C9.96993 7.46824 10.0129 7.73403 10 8.00008ZM4 18.0001C4 17.2044 4.31607 16.4414 4.87868 15.8788C5.44129 15.3162 6.20435 15.0001 7 15.0001H9C9.79565 15.0001 10.5587 15.3162 11.1213 15.8788C11.6839 16.4414 12 17.2044 12 18.0001V19.0001H14V18.0001C14 17.3435 13.8707 16.6933 13.6194 16.0867C13.3681 15.48 12.9998 14.9288 12.5355 14.4646C12.0712 14.0003 11.52 13.632 10.9134 13.3807C10.3068 13.1294 9.65661 13.0001 9 13.0001H7C5.67392 13.0001 4.40215 13.5269 3.46447 14.4646C2.52678 15.4022 2 16.674 2 18.0001V19.0001H4V18.0001Z" fill="#FF3E1D"/>
</svg>
