<svg width="20" height="23" viewBox="0 0 20 23" fill="none" xmlns="http://www.w3.org/2000/svg">
<path d="M16.9554 1.72628V21.2737C16.9554 22.2235 16.1881 23 15.2352 23H2.67567C1.72923 23 0.955444 22.2299 0.955444 21.2737V5.58956L6.52539 0H15.2288C16.1881 0 16.9554 0.770089 16.9554 1.72628Z" fill="#263C55"/>
<path d="M16.9554 1.72628V21.2737C16.9554 22.2235 16.1881 23 15.2352 23H2.67567C1.72923 23 0.955444 22.2299 0.955444 21.2737V5.58956L6.52539 0H15.2288C16.1881 0 16.9554 0.770089 16.9554 1.72628Z" fill="white" fill-opacity="0.8"/>
<path d="M0.955444 5.99312L5.95544 0V4.15596C5.95544 5.17431 5.26658 6 4.41698 6H0.955444V5.99312Z" fill="#263C55"/>
<path d="M0.955444 5.99312L5.95544 0V4.15596C5.95544 5.17431 5.26658 6 4.41698 6H0.955444V5.99312Z" fill="white" fill-opacity="0.6"/>
<path d="M16.9554 15V21H6.25892L2.65077 20.0142H0.955444V15.9858H2.65077V15.9792L6.25892 15H16.9554Z" fill="#263C55"/>
<path d="M16.9554 15V21H6.25892L2.65077 20.0142H0.955444V15.9858H2.65077V15.9792L6.25892 15H16.9554Z" fill="white" fill-opacity="0.6"/>
<path d="M18.5351 19.5835H6.172V14.0183H18.5351C19.293 14.0183 19.9109 14.6096 19.9109 15.3349V18.2669C19.9109 18.9922 19.2994 19.5835 18.5351 19.5835Z" fill="#E95935"/>
<path d="M6.17195 19.5835L2.57959 18.6692V14.9265L6.17195 14.0183V19.5835Z" fill="#E94921"/>
<path d="M2.57962 14.9326H0V18.6752H2.57962V14.9326Z" fill="#E95935"/>
<path d="M0 14.9327L0.89172 14.4207V14.9327H0Z" fill="#C43E1C"/>
<path d="M0 18.6692L0.89172 19.1812V18.6692H0Z" fill="#C43E1C"/>
<path d="M9.00427 18.8372V15.0583H10.17C10.3104 15.0583 10.4385 15.0648 10.5484 15.0713C10.6583 15.0778 10.7559 15.0972 10.8414 15.1166C10.9268 15.1425 11.0062 15.1683 11.0733 15.2072C11.1404 15.246 11.2076 15.2848 11.2686 15.3431C11.4029 15.4595 11.5066 15.6083 11.5799 15.7766C11.6531 15.9513 11.6897 16.1389 11.6897 16.346C11.6897 16.5401 11.6531 16.7213 11.586 16.896C11.5188 17.0707 11.4273 17.2131 11.3113 17.3295C11.1892 17.4525 11.0489 17.5366 10.8902 17.5819C10.7315 17.6336 10.524 17.6531 10.2677 17.6531H9.87704V18.8372H9.00427ZM9.87704 16.8054H10.2432C10.6216 16.8054 10.8108 16.6566 10.8108 16.3589C10.8108 16.1972 10.762 16.0872 10.6705 16.016C10.5789 15.9448 10.4202 15.9125 10.2066 15.9125H9.87704V16.8054Z" fill="white"/>
<path d="M12.0925 18.8372V15.0583H13.2888C13.423 15.0583 13.5451 15.0648 13.6489 15.0713C13.7526 15.0778 13.8503 15.0972 13.9357 15.1166C14.0212 15.136 14.1066 15.1683 14.1799 15.2007C14.2592 15.2395 14.3324 15.2783 14.4057 15.3301C14.5705 15.4401 14.7169 15.5825 14.839 15.7636C15.0587 16.0872 15.1625 16.4754 15.1625 16.9283C15.1625 17.2131 15.1198 17.4783 15.0404 17.7113C14.9611 17.9442 14.8451 18.1448 14.6986 18.3131C14.5522 18.4813 14.3752 18.6107 14.1676 18.7013C13.9601 18.7919 13.7282 18.8372 13.478 18.8372H12.0925ZM13.0019 17.9895H13.3925C13.6794 17.9895 13.893 17.8989 14.0395 17.7242C14.186 17.5495 14.2592 17.2972 14.2592 16.9607C14.2592 16.6178 14.186 16.3589 14.0334 16.1778C13.8808 15.9966 13.6672 15.906 13.3925 15.906H12.9958V17.9895H13.0019Z" fill="white"/>
<path d="M15.6324 18.8372V15.0583H17.5794V15.906H16.5052V16.5466H17.5428V17.3942H16.5052V18.8307H15.6324V18.8372Z" fill="white"/>
</svg>
