<svg width="21" height="21" viewBox="0 0 21 21" fill="none" xmlns="http://www.w3.org/2000/svg">
<path d="M10.1999 2.16675C5.61658 2.16675 1.86658 5.91675 1.86658 10.5001C1.86658 15.0834 5.61658 18.8334 10.1999 18.8334C14.7832 18.8334 18.5332 15.0834 18.5332 10.5001C18.5332 5.91675 14.7832 2.16675 10.1999 2.16675ZM11.0332 3.89175C14.0416 4.26675 16.4332 6.66675 16.8082 9.66675H11.0332V3.89175ZM3.53324 10.5001C3.53324 7.11675 6.09158 4.30008 9.36658 3.89175V17.1167C6.09158 16.7001 3.53324 13.8834 3.53324 10.5001ZM11.0332 17.1084V11.3334H16.8082C16.4332 14.3417 14.0416 16.7334 11.0332 17.1084Z" fill="#FFAB00"/>
</svg>
