<svg width="25" height="24" viewBox="0 0 25 24" fill="none" xmlns="http://www.w3.org/2000/svg">
<path d="M22.2261 11.095L5.22606 3.095C5.05489 3.01401 4.86423 2.98334 4.6763 3.00656C4.48837 3.02978 4.31091 3.10594 4.16461 3.22615C4.0183 3.34636 3.90917 3.50568 3.84994 3.68553C3.79071 3.86539 3.78381 4.05837 3.83006 4.242L5.76906 12L3.83006 19.758C3.78338 19.9417 3.78997 20.1349 3.84907 20.315C3.90816 20.495 4.01731 20.6546 4.16375 20.7749C4.31019 20.8952 4.48787 20.9713 4.67599 20.9944C4.86411 21.0174 5.05491 20.9864 5.22606 20.905L22.2261 12.905C22.3979 12.8242 22.5431 12.6963 22.6449 12.536C22.7466 12.3757 22.8006 12.1898 22.8006 12C22.8006 11.8102 22.7466 11.6243 22.6449 11.464C22.5431 11.3037 22.3979 11.1758 22.2261 11.095ZM6.28106 18.197L7.12006 14.84L12.8001 12L7.12006 9.16L6.28106 5.803L19.4511 12L6.28106 18.197Z" fill="#32475C" fill-opacity="0.54"/>
</svg>
