<svg width="25" height="24" viewBox="0 0 25 24" fill="none" xmlns="http://www.w3.org/2000/svg">
<path d="M12.8 9C12.006 9.00524 11.246 9.32299 10.6845 9.88447C10.123 10.4459 9.80529 11.206 9.80005 12C9.80005 13.642 11.158 15 12.8 15C14.441 15 15.8 13.642 15.8 12C15.8 10.359 14.441 9 12.8 9Z" fill="#32475C" fill-opacity="0.54"/>
<path d="M12.8001 5C5.16709 5 2.87309 11.617 2.85209 11.684L2.74609 12L2.85109 12.316C2.87309 12.383 5.16709 19 12.8001 19C20.4331 19 22.7271 12.383 22.7481 12.316L22.8541 12L22.7491 11.684C22.7271 11.617 20.4331 5 12.8001 5ZM12.8001 17C7.44909 17 5.37609 13.154 4.87409 12C5.37809 10.842 7.45209 7 12.8001 7C18.1511 7 20.2241 10.846 20.7261 12C20.2221 13.158 18.1481 17 12.8001 17Z" fill="#32475C" fill-opacity="0.54"/>
</svg>
