<svg width="110" height="33" viewBox="0 0 110 33" fill="none" xmlns="http://www.w3.org/2000/svg">
<g clip-path="url(#clip0_8000_81116)">
<path d="M12.0796 0.00576782C9.95808 0.170319 10.1016 2.46788 10.6577 3.06131C9.07748 4.14597 5.27528 6.75469 2.70806 8.51213C0.486405 10.033 -0.336909 13.8426 0.444917 16.3305C1.20409 18.7463 4.99644 20.5446 7.01376 21.0902C7.01376 21.0902 4.6878 22.4108 2.64171 24.0193C0.595605 25.6278 -0.248765 27.7374 1.22762 30.1048C2.70401 32.4722 5.09028 32.3044 7.01056 31.4492C8.93084 30.5939 12.8676 27.6677 15.1764 26.0653C17.0916 24.6164 17.587 21.4578 16.7055 18.7857C15.9906 16.6187 12.039 14.5714 10.072 13.8426C10.8781 13.2638 12.9977 11.7697 14.8519 10.4364C15.4876 12.2254 17.6002 12.0848 18.2444 11.1284C19.0489 9.37305 20.7338 5.38653 21.5834 3.42071C21.9548 1.92418 21.0258 1.11383 20.0894 0.943758C18.7472 0.700006 15.3292 0.384052 12.0796 0.00576782Z" fill="#696CFF"/>
<path d="M10.6606 3.0625C9.97932 2.25 10.1292 0.102123 12.1165 0.00421143C13.2026 0.130644 14.3118 0.25074 15.3559 0.363791C17.4358 0.588984 19.2575 0.786224 20.124 0.94992C21.0929 1.13294 21.954 2.02429 21.5814 3.44441C21.2822 4.13672 20.8826 5.06584 20.4589 6.05128C19.6794 7.86404 18.818 9.8674 18.3483 10.9378C17.8886 11.9856 15.644 12.4234 14.8451 10.438C12.9909 11.7713 10.915 13.2622 10.1088 13.841C9.97204 13.7821 9.7226 13.6952 9.4046 13.5845C8.34728 13.2163 6.53204 12.5841 5.57872 11.8386C3.84509 10.2367 4.65 7.78648 5.26912 6.7616C7.13056 5.48732 8.29632 4.68644 9.399 3.92894C9.81712 3.64171 10.2261 3.36071 10.6606 3.0625Z" fill="white" fill-opacity="0.2"/>
<path d="M7.01729 21.0906C8.48973 21.595 11.4215 22.8204 12.0365 23.6404C12.8052 24.6654 13.2631 25.736 11.7012 28.4816C11.4382 28.6592 11.1929 28.8253 10.9628 28.9811C8.87821 30.3927 8.04349 30.9578 6.64981 31.6212C5.43429 32.0986 2.64639 32.6841 1.06632 29.8261C-0.44697 27.0889 1.29536 25.0845 2.63861 24.026L4.86789 22.4136L5.93445 21.7391L7.01729 21.0906Z" fill="white" fill-opacity="0.2"/>
</g>
<path d="M39.87 26.48C38.8713 26.48 37.8913 26.354 36.93 26.102C35.9687 25.85 35.0913 25.472 34.298 24.968C33.5047 24.464 32.8467 23.834 32.324 23.078C31.8107 22.322 31.5027 21.4353 31.4 20.418H35.586C35.726 21.034 35.992 21.552 36.384 21.972C36.776 22.392 37.2707 22.714 37.868 22.938C38.4653 23.162 39.128 23.274 39.856 23.274C40.6027 23.274 41.284 23.1807 41.9 22.994C42.516 22.8073 43.0107 22.5273 43.384 22.154C43.7573 21.7713 43.944 21.2953 43.944 20.726C43.944 20.2127 43.79 19.7927 43.482 19.466C43.1833 19.1393 42.7773 18.8733 42.264 18.668C41.7507 18.4627 41.1673 18.2947 40.514 18.164L37.014 17.45C35.4833 17.1607 34.27 16.554 33.374 15.63C32.478 14.6967 32.016 13.4553 31.988 11.906C31.9787 10.6367 32.3147 9.54 32.996 8.616C33.6867 7.68266 34.62 6.964 35.796 6.46C36.9813 5.956 38.3067 5.704 39.772 5.704C41.5173 5.704 42.9827 5.97933 44.168 6.53C45.3627 7.07133 46.268 7.80866 46.884 8.742C47.5093 9.666 47.8313 10.6973 47.85 11.836H43.748C43.6733 11.1267 43.4587 10.562 43.104 10.142C42.7493 9.722 42.292 9.41866 41.732 9.232C41.1813 9.04533 40.5513 8.952 39.842 8.952C39.3007 8.952 38.806 9.01266 38.358 9.134C37.9193 9.25533 37.546 9.428 37.238 9.652C36.93 9.86666 36.692 10.1233 36.524 10.422C36.356 10.7207 36.272 11.0567 36.272 11.43C36.272 12.018 36.468 12.494 36.86 12.858C37.252 13.222 37.9847 13.5207 39.058 13.754L42.53 14.468C43.7713 14.7107 44.756 15.07 45.484 15.546C46.2213 16.022 46.772 16.5587 47.136 17.156C47.5093 17.7533 47.752 18.3647 47.864 18.99C47.9853 19.606 48.046 20.1753 48.046 20.698C48.046 21.79 47.7007 22.7747 47.01 23.652C46.3287 24.52 45.3767 25.2107 44.154 25.724C42.9313 26.228 41.5033 26.48 39.87 26.48ZM51.3141 26.2V11.724H55.3321V13.768C55.5561 13.4133 55.8454 13.0727 56.2001 12.746C56.5641 12.41 57.0214 12.1347 57.5721 11.92C58.1227 11.7053 58.7761 11.598 59.5321 11.598C60.4187 11.598 61.2447 11.7707 62.0101 12.116C62.7847 12.4613 63.4101 13.0073 63.8861 13.754C64.3621 14.4913 64.6001 15.4573 64.6001 16.652V26.2H60.5121V17.156C60.5121 16.372 60.2787 15.784 59.8121 15.392C59.3454 15 58.7761 14.804 58.1041 14.804C57.6561 14.804 57.2221 14.8833 56.8021 15.042C56.3914 15.2007 56.0554 15.4387 55.7941 15.756C55.5327 16.0733 55.4021 16.4653 55.4021 16.932V26.2H51.3141ZM71.4217 19.9C71.4124 20.6373 71.5291 21.2813 71.7717 21.832C72.0144 22.3733 72.3644 22.7933 72.8217 23.092C73.2884 23.3813 73.8484 23.526 74.5017 23.526C75.2017 23.526 75.8131 23.3767 76.3357 23.078C76.8677 22.7793 77.2364 22.2893 77.4417 21.608H81.1237C80.9651 22.6347 80.5544 23.512 79.8917 24.24C79.2384 24.968 78.4451 25.5233 77.5117 25.906C76.5784 26.2887 75.6077 26.48 74.5997 26.48C73.1717 26.48 71.9117 26.1813 70.8197 25.584C69.7371 24.9773 68.8924 24.1233 68.2857 23.022C67.6791 21.9207 67.3757 20.6233 67.3757 19.13C67.3757 17.6833 67.6511 16.3813 68.2017 15.224C68.7524 14.0573 69.5504 13.138 70.5957 12.466C71.6504 11.7847 72.9151 11.444 74.3897 11.444C75.8644 11.444 77.1011 11.7567 78.0997 12.382C79.1077 12.998 79.8637 13.8613 80.3677 14.972C80.8811 16.0733 81.1377 17.3473 81.1377 18.794V19.9H71.4217ZM71.4077 17.464H77.3157C77.3157 16.8853 77.2084 16.3533 76.9937 15.868C76.7791 15.3827 76.4524 15 76.0137 14.72C75.5844 14.44 75.0431 14.3 74.3897 14.3C73.7551 14.3 73.2137 14.454 72.7657 14.762C72.3271 15.0607 71.9911 15.4527 71.7577 15.938C71.5244 16.4233 71.4077 16.932 71.4077 17.464ZM88.2438 26.48C87.3198 26.48 86.4891 26.3073 85.7518 25.962C85.0144 25.6167 84.4311 25.1173 84.0018 24.464C83.5724 23.8013 83.3578 22.9987 83.3578 22.056C83.3578 20.4693 83.9504 19.2653 85.1358 18.444C86.3211 17.6133 88.1924 17.184 90.7498 17.156L92.5558 17.128V16.26C92.5558 15.5973 92.3598 15.0887 91.9678 14.734C91.5851 14.37 90.9878 14.1927 90.1758 14.202C89.5784 14.2113 89.0091 14.3513 88.4678 14.622C87.9358 14.8927 87.5718 15.364 87.3758 16.036H83.9738C84.0298 14.9907 84.3331 14.132 84.8838 13.46C85.4344 12.7787 86.1811 12.2747 87.1238 11.948C88.0758 11.612 89.1538 11.444 90.3578 11.444C91.8418 11.444 93.0318 11.6307 93.9278 12.004C94.8238 12.368 95.4724 12.8953 95.8738 13.586C96.2751 14.2673 96.4758 15.0793 96.4758 16.022V26.2H93.0598L92.7238 23.708C92.2291 24.7533 91.6084 25.4767 90.8618 25.878C90.1244 26.2793 89.2518 26.48 88.2438 26.48ZM89.6158 23.792C89.9891 23.792 90.3484 23.7267 90.6938 23.596C91.0484 23.456 91.3611 23.274 91.6318 23.05C91.9118 22.8167 92.1358 22.5553 92.3038 22.266C92.4718 21.9767 92.5558 21.678 92.5558 21.37V19.228L91.0858 19.256C90.4044 19.2653 89.7698 19.3493 89.1818 19.508C88.5938 19.6573 88.1178 19.9047 87.7538 20.25C87.3991 20.5953 87.2218 21.062 87.2218 21.65C87.2218 22.322 87.4551 22.8493 87.9218 23.232C88.3884 23.6053 88.9531 23.792 89.6158 23.792ZM108.436 14.566H105.216L105.244 22.28C105.244 22.6347 105.286 22.9007 105.37 23.078C105.463 23.246 105.603 23.358 105.79 23.414C105.986 23.4607 106.233 23.484 106.532 23.484H108.478V26.004C108.291 26.088 107.997 26.1673 107.596 26.242C107.204 26.3167 106.653 26.354 105.944 26.354C104.674 26.354 103.69 26.1907 102.99 25.864C102.299 25.5373 101.818 25.08 101.548 24.492C101.277 23.904 101.142 23.2227 101.142 22.448V14.566H98.7896V11.724H101.282L102.304 7.356H105.216V11.71H108.436V14.566Z" fill="#32475C" fill-opacity="0.87"/>
<defs>
<clipPath id="clip0_8000_81116">
<rect width="22" height="32.4" fill="white"/>
</clipPath>
</defs>
</svg>
