<svg width="20" height="17" viewBox="0 0 20 17" fill="none" xmlns="http://www.w3.org/2000/svg">
<path d="M17.7697 4.12479C17.7827 4.29979 17.7827 4.47379 17.7827 4.64779C17.7827 9.97279 13.7297 16.1088 6.32272 16.1088C4.04072 16.1088 1.92072 15.4478 0.136719 14.2998C0.460719 14.3368 0.772719 14.3498 1.10972 14.3498C2.99272 14.3498 4.72572 13.7138 6.11072 12.6288C4.33972 12.5918 2.85572 11.4318 2.34372 9.83579C2.59272 9.87279 2.84272 9.89779 3.10472 9.89779C3.46572 9.89779 3.82872 9.84779 4.16572 9.76079C2.31872 9.38679 0.935719 7.76579 0.935719 5.80779V5.75779C1.47272 6.05679 2.09572 6.24379 2.75572 6.26879C1.67072 5.54679 0.959719 4.31179 0.959719 2.91479C0.959719 2.16679 1.15872 1.48079 1.50772 0.88279C3.49072 3.32579 6.47172 4.92279 9.81372 5.09779C9.75172 4.79779 9.71372 4.48679 9.71372 4.17479C9.71372 1.95479 11.5097 0.14679 13.7417 0.14679C14.9017 0.14679 15.9487 0.632789 16.6847 1.41879C17.5947 1.24379 18.4667 0.90679 19.2407 0.44579C18.9417 1.38079 18.3047 2.16679 17.4697 2.66579C18.2807 2.57779 19.0667 2.35379 19.7887 2.04179C19.2407 2.83979 18.5557 3.55079 17.7697 4.12479Z" fill="#1DA1F2"/>
</svg>
