<svg width="183" viewBox="0 0 183 5" fill="none" xmlns="http://www.w3.org/2000/svg">
<!-- <path d="M24.067 25.654C23.507 25.654 22.9843 25.549 22.499 25.339C22.0183 25.1243 21.6147 24.821 21.288 24.429C20.966 24.037 20.7677 23.568 20.693 23.022H21.953C22.0697 23.484 22.3123 23.8597 22.681 24.149C23.0497 24.4337 23.4977 24.576 24.025 24.576C24.6223 24.576 25.1333 24.4197 25.558 24.107C25.9873 23.7943 26.307 23.3113 26.517 22.658C26.727 22.0047 26.8063 21.167 26.755 20.145C26.6383 20.4997 26.454 20.8123 26.202 21.083C25.95 21.349 25.6467 21.559 25.292 21.713C24.9373 21.867 24.5453 21.944 24.116 21.944C23.4487 21.944 22.8607 21.8133 22.352 21.552C21.8433 21.2907 21.4467 20.9173 21.162 20.432C20.882 19.9467 20.742 19.3657 20.742 18.689C20.742 18.0123 20.882 17.415 21.162 16.897C21.442 16.379 21.8433 15.973 22.366 15.679C22.8887 15.385 23.5093 15.238 24.228 15.238C25.012 15.238 25.691 15.441 26.265 15.847C26.839 16.2483 27.2823 16.827 27.595 17.583C27.9077 18.3343 28.064 19.2373 28.064 20.292C28.064 21.426 27.9077 22.392 27.595 23.19C27.287 23.988 26.8343 24.5993 26.237 25.024C25.6443 25.444 24.921 25.654 24.067 25.654ZM24.256 20.845C24.6293 20.845 24.984 20.7587 25.32 20.586C25.656 20.4133 25.929 20.1847 26.139 19.9C26.3537 19.6107 26.461 19.2957 26.461 18.955C26.4657 18.4323 26.377 17.9727 26.195 17.576C26.013 17.1747 25.754 16.862 25.418 16.638C25.082 16.4093 24.69 16.295 24.242 16.295C23.8313 16.295 23.4673 16.393 23.15 16.589C22.8373 16.785 22.59 17.058 22.408 17.408C22.2307 17.758 22.142 18.164 22.142 18.626C22.142 19.3027 22.3217 19.8417 22.681 20.243C23.0403 20.6443 23.5653 20.845 24.256 20.845ZM29.7543 25.5V24.709V24.296C29.7543 23.778 29.85 23.33 30.0413 22.952C30.2373 22.574 30.494 22.245 30.8113 21.965C31.1333 21.6803 31.4833 21.426 31.8613 21.202C32.244 20.978 32.6243 20.7633 33.0023 20.558C33.385 20.348 33.735 20.131 34.0523 19.907C34.3697 19.6783 34.624 19.4217 34.8153 19.137C35.0113 18.8477 35.1093 18.507 35.1093 18.115C35.1093 17.6017 34.9273 17.184 34.5633 16.862C34.204 16.54 33.7163 16.379 33.1003 16.379C32.4377 16.379 31.9057 16.5657 31.5043 16.939C31.103 17.3123 30.8767 17.8093 30.8253 18.43H29.5373C29.5513 17.8467 29.696 17.3147 29.9713 16.834C30.2467 16.3487 30.6503 15.9613 31.1823 15.672C31.7143 15.3827 32.37 15.238 33.1493 15.238C33.826 15.238 34.414 15.3593 34.9133 15.602C35.4127 15.84 35.7977 16.176 36.0683 16.61C36.3437 17.0393 36.4813 17.541 36.4813 18.115C36.4813 18.6377 36.3857 19.0857 36.1943 19.459C36.003 19.8323 35.7487 20.1567 35.4313 20.432C35.1187 20.7027 34.7757 20.9453 34.4023 21.16C34.029 21.3747 33.6533 21.5823 33.2753 21.783C32.8973 21.979 32.552 22.1867 32.2393 22.406C31.9267 22.6207 31.6747 22.868 31.4833 23.148C31.292 23.428 31.1963 23.7617 31.1963 24.149V24.352H36.5373V25.5H29.7543ZM40.5262 15.224C40.9788 15.224 41.3848 15.343 41.7442 15.581C42.1035 15.819 42.3858 16.155 42.5912 16.589C42.7965 17.023 42.8992 17.534 42.8992 18.122C42.8992 18.71 42.7965 19.2187 42.5912 19.648C42.3905 20.0773 42.1105 20.411 41.7512 20.649C41.3918 20.8823 40.9835 20.999 40.5262 20.999C40.0642 20.999 39.6512 20.8823 39.2872 20.649C38.9278 20.411 38.6432 20.0773 38.4332 19.648C38.2232 19.2187 38.1182 18.71 38.1182 18.122C38.1182 17.534 38.2232 17.023 38.4332 16.589C38.6432 16.155 38.9278 15.819 39.2872 15.581C39.6512 15.343 40.0642 15.224 40.5262 15.224ZM40.5122 20.278C40.9602 20.278 41.3032 20.0797 41.5412 19.683C41.7838 19.2863 41.9052 18.766 41.9052 18.122C41.9052 17.4687 41.7838 16.9437 41.5412 16.547C41.2985 16.1457 40.9555 15.945 40.5122 15.945C40.2135 15.945 39.9592 16.0383 39.7492 16.225C39.5438 16.407 39.3852 16.6613 39.2732 16.988C39.1658 17.3147 39.1122 17.6927 39.1122 18.122C39.1122 18.7613 39.2335 19.2817 39.4762 19.683C39.7188 20.0797 40.0642 20.278 40.5122 20.278ZM46.8612 19.851C47.3185 19.851 47.7268 19.9723 48.0862 20.215C48.4455 20.453 48.7278 20.789 48.9332 21.223C49.1385 21.657 49.2412 22.1657 49.2412 22.749C49.2412 23.337 49.1385 23.848 48.9332 24.282C48.7325 24.716 48.4525 25.052 48.0932 25.29C47.7338 25.5233 47.3232 25.64 46.8612 25.64C46.3992 25.64 45.9862 25.5233 45.6222 25.29C45.2582 25.052 44.9735 24.716 44.7682 24.282C44.5628 23.848 44.4602 23.337 44.4602 22.749C44.4602 22.1657 44.5628 21.657 44.7682 21.223C44.9782 20.789 45.2652 20.453 45.6292 20.215C45.9932 19.9723 46.4038 19.851 46.8612 19.851ZM46.8472 24.905C47.1365 24.905 47.3862 24.814 47.5962 24.632C47.8062 24.4453 47.9672 24.191 48.0792 23.869C48.1912 23.547 48.2472 23.1783 48.2472 22.763C48.2472 22.3383 48.1888 21.9627 48.0722 21.636C47.9602 21.3047 47.7992 21.0457 47.5892 20.859C47.3792 20.6723 47.1318 20.579 46.8472 20.579C46.5625 20.579 46.3152 20.6747 46.1052 20.866C45.8952 21.0527 45.7342 21.3117 45.6222 21.643C45.5102 21.9697 45.4542 22.343 45.4542 22.763C45.4542 23.1783 45.5102 23.547 45.6222 23.869C45.7342 24.191 45.8928 24.4453 46.0982 24.632C46.3082 24.814 46.5578 24.905 46.8472 24.905ZM47.4422 15.266L40.6382 25.556L39.7632 25.549L46.5952 15.266H47.4422Z" fill="#32475C" fill-opacity="0.6"/> -->
<rect width="120" height="6" rx="3" fill="#EBEEF0"/>
<rect width="107" height="6" rx="3" fill="#71DD37"/>
</svg>
