<svg width="183" viewBox="0 0 183 5" fill="none" xmlns="http://www.w3.org/2000/svg">
<!-- <path d="M24.634 15.238C25.194 15.238 25.7097 15.343 26.181 15.553C26.657 15.763 27.0513 16.064 27.364 16.456C27.6767 16.848 27.8703 17.3217 27.945 17.877H26.727C26.5917 17.3963 26.3467 17.016 25.992 16.736C25.6373 16.456 25.1917 16.316 24.655 16.316C24.0577 16.316 23.5583 16.4863 23.157 16.827C22.7603 17.163 22.471 17.6577 22.289 18.311C22.107 18.9597 22.044 19.7577 22.1 20.705C22.226 20.3643 22.4173 20.0657 22.674 19.809C22.9353 19.5477 23.2387 19.347 23.584 19.207C23.9293 19.0623 24.3027 18.99 24.704 18.99C25.3713 18.99 25.9547 19.1207 26.454 19.382C26.9533 19.6387 27.343 20.0073 27.623 20.488C27.903 20.964 28.043 21.5333 28.043 22.196C28.043 22.8727 27.8983 23.4723 27.609 23.995C27.3243 24.513 26.9183 24.919 26.391 25.213C25.8637 25.507 25.2407 25.654 24.522 25.654C23.738 25.654 23.0567 25.451 22.478 25.045C21.904 24.639 21.4583 24.0603 21.141 23.309C20.8283 22.553 20.672 21.6477 20.672 20.593C20.672 19.5103 20.8237 18.5677 21.127 17.765C21.435 16.9623 21.883 16.3417 22.471 15.903C23.059 15.4597 23.78 15.238 24.634 15.238ZM24.494 20.04C24.1253 20.04 23.7707 20.1287 23.43 20.306C23.094 20.4787 22.8187 20.7073 22.604 20.992C22.394 21.2767 22.289 21.5917 22.289 21.937C22.2843 22.4503 22.373 22.9077 22.555 23.309C22.7417 23.7057 23.003 24.0183 23.339 24.247C23.675 24.471 24.0647 24.583 24.508 24.583C24.9233 24.583 25.292 24.485 25.614 24.289C25.936 24.093 26.188 23.82 26.37 23.47C26.5567 23.12 26.65 22.7163 26.65 22.259C26.65 21.797 26.566 21.4003 26.398 21.069C26.2347 20.7377 25.992 20.4833 25.67 20.306C25.348 20.1287 24.956 20.04 24.494 20.04ZM29.727 25.5V24.709V24.296C29.727 23.778 29.8227 23.33 30.014 22.952C30.21 22.574 30.4667 22.245 30.784 21.965C31.106 21.6803 31.456 21.426 31.834 21.202C32.2167 20.978 32.597 20.7633 32.975 20.558C33.3577 20.348 33.7077 20.131 34.025 19.907C34.3423 19.6783 34.5967 19.4217 34.788 19.137C34.984 18.8477 35.082 18.507 35.082 18.115C35.082 17.6017 34.9 17.184 34.536 16.862C34.1767 16.54 33.689 16.379 33.073 16.379C32.4103 16.379 31.8783 16.5657 31.477 16.939C31.0757 17.3123 30.8493 17.8093 30.798 18.43H29.51C29.524 17.8467 29.6687 17.3147 29.944 16.834C30.2193 16.3487 30.623 15.9613 31.155 15.672C31.687 15.3827 32.3427 15.238 33.122 15.238C33.7987 15.238 34.3867 15.3593 34.886 15.602C35.3853 15.84 35.7703 16.176 36.041 16.61C36.3163 17.0393 36.454 17.541 36.454 18.115C36.454 18.6377 36.3583 19.0857 36.167 19.459C35.9757 19.8323 35.7213 20.1567 35.404 20.432C35.0913 20.7027 34.7483 20.9453 34.375 21.16C34.0017 21.3747 33.626 21.5823 33.248 21.783C32.87 21.979 32.5247 22.1867 32.212 22.406C31.8993 22.6207 31.6473 22.868 31.456 23.148C31.2647 23.428 31.169 23.7617 31.169 24.149V24.352H36.51V25.5H29.727ZM40.4988 15.224C40.9515 15.224 41.3575 15.343 41.7168 15.581C42.0762 15.819 42.3585 16.155 42.5638 16.589C42.7692 17.023 42.8718 17.534 42.8718 18.122C42.8718 18.71 42.7692 19.2187 42.5638 19.648C42.3632 20.0773 42.0832 20.411 41.7238 20.649C41.3645 20.8823 40.9562 20.999 40.4988 20.999C40.0368 20.999 39.6238 20.8823 39.2598 20.649C38.9005 20.411 38.6158 20.0773 38.4058 19.648C38.1958 19.2187 38.0908 18.71 38.0908 18.122C38.0908 17.534 38.1958 17.023 38.4058 16.589C38.6158 16.155 38.9005 15.819 39.2598 15.581C39.6238 15.343 40.0368 15.224 40.4988 15.224ZM40.4848 20.278C40.9328 20.278 41.2758 20.0797 41.5138 19.683C41.7565 19.2863 41.8778 18.766 41.8778 18.122C41.8778 17.4687 41.7565 16.9437 41.5138 16.547C41.2712 16.1457 40.9282 15.945 40.4848 15.945C40.1862 15.945 39.9318 16.0383 39.7218 16.225C39.5165 16.407 39.3578 16.6613 39.2458 16.988C39.1385 17.3147 39.0848 17.6927 39.0848 18.122C39.0848 18.7613 39.2062 19.2817 39.4488 19.683C39.6915 20.0797 40.0368 20.278 40.4848 20.278ZM46.8338 19.851C47.2912 19.851 47.6995 19.9723 48.0588 20.215C48.4182 20.453 48.7005 20.789 48.9058 21.223C49.1112 21.657 49.2138 22.1657 49.2138 22.749C49.2138 23.337 49.1112 23.848 48.9058 24.282C48.7052 24.716 48.4252 25.052 48.0658 25.29C47.7065 25.5233 47.2958 25.64 46.8338 25.64C46.3718 25.64 45.9588 25.5233 45.5948 25.29C45.2308 25.052 44.9462 24.716 44.7408 24.282C44.5355 23.848 44.4328 23.337 44.4328 22.749C44.4328 22.1657 44.5355 21.657 44.7408 21.223C44.9508 20.789 45.2378 20.453 45.6018 20.215C45.9658 19.9723 46.3765 19.851 46.8338 19.851ZM46.8198 24.905C47.1092 24.905 47.3588 24.814 47.5688 24.632C47.7788 24.4453 47.9398 24.191 48.0518 23.869C48.1638 23.547 48.2198 23.1783 48.2198 22.763C48.2198 22.3383 48.1615 21.9627 48.0448 21.636C47.9328 21.3047 47.7718 21.0457 47.5618 20.859C47.3518 20.6723 47.1045 20.579 46.8198 20.579C46.5352 20.579 46.2878 20.6747 46.0778 20.866C45.8678 21.0527 45.7068 21.3117 45.5948 21.643C45.4828 21.9697 45.4268 22.343 45.4268 22.763C45.4268 23.1783 45.4828 23.547 45.5948 23.869C45.7068 24.191 45.8655 24.4453 46.0708 24.632C46.2808 24.814 46.5305 24.905 46.8198 24.905ZM47.4148 15.266L40.6108 25.556L39.7358 25.549L46.5678 15.266H47.4148Z" fill="#32475C" fill-opacity="0.6"/> -->
<rect width="120" height="6" rx="3" fill="#EBEEF0"/>
<rect width="80" height="6" rx="3" fill="#696CFF"/>
</svg>
