<svg width="183" viewBox="0 0 183 5" fill="none" xmlns="http://www.w3.org/2000/svg">
<!-- <path d="M24.529 15.238C25.1777 15.238 25.7587 15.3453 26.272 15.56C26.7853 15.7747 27.1913 16.0873 27.49 16.498C27.7887 16.9087 27.938 17.408 27.938 17.996C27.938 18.5467 27.7887 19.0087 27.49 19.382C27.196 19.7553 26.8157 20.04 26.349 20.236C26.6897 20.3013 27.014 20.46 27.322 20.712C27.6347 20.964 27.8913 21.2697 28.092 21.629C28.2927 21.9883 28.393 22.364 28.393 22.756C28.393 23.3393 28.232 23.848 27.91 24.282C27.5927 24.716 27.1447 25.0543 26.566 25.297C25.9873 25.535 25.3083 25.654 24.529 25.654C23.7543 25.654 23.0777 25.535 22.499 25.297C21.9203 25.0543 21.47 24.716 21.148 24.282C20.8307 23.848 20.672 23.3393 20.672 22.756C20.672 22.364 20.77 21.9883 20.966 21.629C21.1667 21.2697 21.4233 20.964 21.736 20.712C22.0487 20.46 22.3753 20.3013 22.716 20.236C22.254 20.04 21.8713 19.7553 21.568 19.382C21.2693 19.0087 21.12 18.5467 21.12 17.996C21.12 17.408 21.2693 16.9087 21.568 16.498C21.8667 16.0873 22.2727 15.7747 22.786 15.56C23.304 15.3453 23.885 15.238 24.529 15.238ZM24.529 19.69C25.145 19.69 25.6443 19.5383 26.027 19.235C26.4143 18.9317 26.608 18.5093 26.608 17.968C26.608 17.422 26.4143 16.9927 26.027 16.68C25.6397 16.3627 25.1403 16.204 24.529 16.204C23.9177 16.204 23.4183 16.3627 23.031 16.68C22.6437 16.9973 22.45 17.4267 22.45 17.968C22.45 18.5093 22.6437 18.9317 23.031 19.235C23.4183 19.5383 23.9177 19.69 24.529 19.69ZM24.529 24.604C25.2803 24.604 25.88 24.436 26.328 24.1C26.776 23.7593 27 23.309 27 22.749C27 22.3803 26.8973 22.0513 26.692 21.762C26.4913 21.4727 26.2067 21.2463 25.838 21.083C25.4693 20.915 25.033 20.831 24.529 20.831C24.0297 20.831 23.5957 20.915 23.227 21.083C22.863 21.2463 22.5783 21.4727 22.373 21.762C22.1723 22.0513 22.072 22.3803 22.072 22.749C22.072 23.309 22.2937 23.7593 22.737 24.1C23.185 24.436 23.7823 24.604 24.529 24.604ZM32.3645 15.224C32.8171 15.224 33.2231 15.343 33.5825 15.581C33.9418 15.819 34.2241 16.155 34.4295 16.589C34.6348 17.023 34.7375 17.534 34.7375 18.122C34.7375 18.71 34.6348 19.2187 34.4295 19.648C34.2288 20.0773 33.9488 20.411 33.5895 20.649C33.2301 20.8823 32.8218 20.999 32.3645 20.999C31.9025 20.999 31.4895 20.8823 31.1255 20.649C30.7661 20.411 30.4815 20.0773 30.2715 19.648C30.0615 19.2187 29.9565 18.71 29.9565 18.122C29.9565 17.534 30.0615 17.023 30.2715 16.589C30.4815 16.155 30.7661 15.819 31.1255 15.581C31.4895 15.343 31.9025 15.224 32.3645 15.224ZM32.3505 20.278C32.7985 20.278 33.1415 20.0797 33.3795 19.683C33.6221 19.2863 33.7435 18.766 33.7435 18.122C33.7435 17.4687 33.6221 16.9437 33.3795 16.547C33.1368 16.1457 32.7938 15.945 32.3505 15.945C32.0518 15.945 31.7975 16.0383 31.5875 16.225C31.3821 16.407 31.2235 16.6613 31.1115 16.988C31.0041 17.3147 30.9505 17.6927 30.9505 18.122C30.9505 18.7613 31.0718 19.2817 31.3145 19.683C31.5571 20.0797 31.9025 20.278 32.3505 20.278ZM38.6995 19.851C39.1568 19.851 39.5651 19.9723 39.9245 20.215C40.2838 20.453 40.5661 20.789 40.7715 21.223C40.9768 21.657 41.0795 22.1657 41.0795 22.749C41.0795 23.337 40.9768 23.848 40.7715 24.282C40.5708 24.716 40.2908 25.052 39.9315 25.29C39.5721 25.5233 39.1615 25.64 38.6995 25.64C38.2375 25.64 37.8245 25.5233 37.4605 25.29C37.0965 25.052 36.8118 24.716 36.6065 24.282C36.4011 23.848 36.2985 23.337 36.2985 22.749C36.2985 22.1657 36.4011 21.657 36.6065 21.223C36.8165 20.789 37.1035 20.453 37.4675 20.215C37.8315 19.9723 38.2421 19.851 38.6995 19.851ZM38.6855 24.905C38.9748 24.905 39.2245 24.814 39.4345 24.632C39.6445 24.4453 39.8055 24.191 39.9175 23.869C40.0295 23.547 40.0855 23.1783 40.0855 22.763C40.0855 22.3383 40.0271 21.9627 39.9105 21.636C39.7985 21.3047 39.6375 21.0457 39.4275 20.859C39.2175 20.6723 38.9701 20.579 38.6855 20.579C38.4008 20.579 38.1535 20.6747 37.9435 20.866C37.7335 21.0527 37.5725 21.3117 37.4605 21.643C37.3485 21.9697 37.2925 22.343 37.2925 22.763C37.2925 23.1783 37.3485 23.547 37.4605 23.869C37.5725 24.191 37.7311 24.4453 37.9365 24.632C38.1465 24.814 38.3961 24.905 38.6855 24.905ZM39.2805 15.266L32.4765 25.556L31.6015 25.549L38.4335 15.266H39.2805Z" fill="#32475C" fill-opacity="0.6"/> -->
<rect width="120" height="6" rx="3" fill="#EBEEF0"/>
<rect width="14" height="6" rx="3" fill="#FF3E1D"/>
</svg>
