<svg width="183" viewBox="0 0 183 5" fill="none" xmlns="http://www.w3.org/2000/svg">
<!-- <path d="M24.529 15.238C25.1777 15.238 25.7587 15.3453 26.272 15.56C26.7853 15.7747 27.1913 16.0873 27.49 16.498C27.7887 16.9087 27.938 17.408 27.938 17.996C27.938 18.5467 27.7887 19.0087 27.49 19.382C27.196 19.7553 26.8157 20.04 26.349 20.236C26.6897 20.3013 27.014 20.46 27.322 20.712C27.6347 20.964 27.8913 21.2697 28.092 21.629C28.2927 21.9883 28.393 22.364 28.393 22.756C28.393 23.3393 28.232 23.848 27.91 24.282C27.5927 24.716 27.1447 25.0543 26.566 25.297C25.9873 25.535 25.3083 25.654 24.529 25.654C23.7543 25.654 23.0777 25.535 22.499 25.297C21.9203 25.0543 21.47 24.716 21.148 24.282C20.8307 23.848 20.672 23.3393 20.672 22.756C20.672 22.364 20.77 21.9883 20.966 21.629C21.1667 21.2697 21.4233 20.964 21.736 20.712C22.0487 20.46 22.3753 20.3013 22.716 20.236C22.254 20.04 21.8713 19.7553 21.568 19.382C21.2693 19.0087 21.12 18.5467 21.12 17.996C21.12 17.408 21.2693 16.9087 21.568 16.498C21.8667 16.0873 22.2727 15.7747 22.786 15.56C23.304 15.3453 23.885 15.238 24.529 15.238ZM24.529 19.69C25.145 19.69 25.6443 19.5383 26.027 19.235C26.4143 18.9317 26.608 18.5093 26.608 17.968C26.608 17.422 26.4143 16.9927 26.027 16.68C25.6397 16.3627 25.1403 16.204 24.529 16.204C23.9177 16.204 23.4183 16.3627 23.031 16.68C22.6437 16.9973 22.45 17.4267 22.45 17.968C22.45 18.5093 22.6437 18.9317 23.031 19.235C23.4183 19.5383 23.9177 19.69 24.529 19.69ZM24.529 24.604C25.2803 24.604 25.88 24.436 26.328 24.1C26.776 23.7593 27 23.309 27 22.749C27 22.3803 26.8973 22.0513 26.692 21.762C26.4913 21.4727 26.2067 21.2463 25.838 21.083C25.4693 20.915 25.033 20.831 24.529 20.831C24.0297 20.831 23.5957 20.915 23.227 21.083C22.863 21.2463 22.5783 21.4727 22.373 21.762C22.1723 22.0513 22.072 22.3803 22.072 22.749C22.072 23.309 22.2937 23.7593 22.737 24.1C23.185 24.436 23.7823 24.604 24.529 24.604ZM33.6477 15.238C34.2964 15.238 34.8774 15.3453 35.3907 15.56C35.9041 15.7747 36.3101 16.0873 36.6087 16.498C36.9074 16.9087 37.0568 17.408 37.0568 17.996C37.0568 18.5467 36.9074 19.0087 36.6087 19.382C36.3148 19.7553 35.9344 20.04 35.4678 20.236C35.8084 20.3013 36.1327 20.46 36.4407 20.712C36.7534 20.964 37.0101 21.2697 37.2107 21.629C37.4114 21.9883 37.5117 22.364 37.5117 22.756C37.5117 23.3393 37.3507 23.848 37.0287 24.282C36.7114 24.716 36.2634 25.0543 35.6847 25.297C35.1061 25.535 34.4271 25.654 33.6477 25.654C32.8731 25.654 32.1964 25.535 31.6177 25.297C31.0391 25.0543 30.5887 24.716 30.2667 24.282C29.9494 23.848 29.7907 23.3393 29.7907 22.756C29.7907 22.364 29.8887 21.9883 30.0847 21.629C30.2854 21.2697 30.5421 20.964 30.8547 20.712C31.1674 20.46 31.4941 20.3013 31.8347 20.236C31.3727 20.04 30.9901 19.7553 30.6867 19.382C30.3881 19.0087 30.2387 18.5467 30.2387 17.996C30.2387 17.408 30.3881 16.9087 30.6867 16.498C30.9854 16.0873 31.3914 15.7747 31.9047 15.56C32.4227 15.3453 33.0037 15.238 33.6477 15.238ZM33.6477 19.69C34.2637 19.69 34.7631 19.5383 35.1458 19.235C35.5331 18.9317 35.7268 18.5093 35.7268 17.968C35.7268 17.422 35.5331 16.9927 35.1458 16.68C34.7584 16.3627 34.2591 16.204 33.6477 16.204C33.0364 16.204 32.5371 16.3627 32.1497 16.68C31.7624 16.9973 31.5687 17.4267 31.5687 17.968C31.5687 18.5093 31.7624 18.9317 32.1497 19.235C32.5371 19.5383 33.0364 19.69 33.6477 19.69ZM33.6477 24.604C34.3991 24.604 34.9987 24.436 35.4467 24.1C35.8947 23.7593 36.1187 23.309 36.1187 22.749C36.1187 22.3803 36.0161 22.0513 35.8107 21.762C35.6101 21.4727 35.3254 21.2463 34.9567 21.083C34.5881 20.915 34.1517 20.831 33.6477 20.831C33.1484 20.831 32.7144 20.915 32.3457 21.083C31.9817 21.2463 31.6971 21.4727 31.4917 21.762C31.2911 22.0513 31.1907 22.3803 31.1907 22.749C31.1907 23.309 31.4124 23.7593 31.8557 24.1C32.3037 24.436 32.9011 24.604 33.6477 24.604ZM41.4832 15.224C41.9359 15.224 42.3419 15.343 42.7012 15.581C43.0605 15.819 43.3429 16.155 43.5482 16.589C43.7535 17.023 43.8562 17.534 43.8562 18.122C43.8562 18.71 43.7535 19.2187 43.5482 19.648C43.3475 20.0773 43.0675 20.411 42.7082 20.649C42.3489 20.8823 41.9405 20.999 41.4832 20.999C41.0212 20.999 40.6082 20.8823 40.2442 20.649C39.8849 20.411 39.6002 20.0773 39.3902 19.648C39.1802 19.2187 39.0752 18.71 39.0752 18.122C39.0752 17.534 39.1802 17.023 39.3902 16.589C39.6002 16.155 39.8849 15.819 40.2442 15.581C40.6082 15.343 41.0212 15.224 41.4832 15.224ZM41.4692 20.278C41.9172 20.278 42.2602 20.0797 42.4982 19.683C42.7409 19.2863 42.8622 18.766 42.8622 18.122C42.8622 17.4687 42.7409 16.9437 42.4982 16.547C42.2555 16.1457 41.9125 15.945 41.4692 15.945C41.1705 15.945 40.9162 16.0383 40.7062 16.225C40.5009 16.407 40.3422 16.6613 40.2302 16.988C40.1229 17.3147 40.0692 17.6927 40.0692 18.122C40.0692 18.7613 40.1905 19.2817 40.4332 19.683C40.6759 20.0797 41.0212 20.278 41.4692 20.278ZM47.8182 19.851C48.2755 19.851 48.6839 19.9723 49.0432 20.215C49.4025 20.453 49.6849 20.789 49.8902 21.223C50.0955 21.657 50.1982 22.1657 50.1982 22.749C50.1982 23.337 50.0955 23.848 49.8902 24.282C49.6895 24.716 49.4095 25.052 49.0502 25.29C48.6909 25.5233 48.2802 25.64 47.8182 25.64C47.3562 25.64 46.9432 25.5233 46.5792 25.29C46.2152 25.052 45.9305 24.716 45.7252 24.282C45.5199 23.848 45.4172 23.337 45.4172 22.749C45.4172 22.1657 45.5199 21.657 45.7252 21.223C45.9352 20.789 46.2222 20.453 46.5862 20.215C46.9502 19.9723 47.3609 19.851 47.8182 19.851ZM47.8042 24.905C48.0935 24.905 48.3432 24.814 48.5532 24.632C48.7632 24.4453 48.9242 24.191 49.0362 23.869C49.1482 23.547 49.2042 23.1783 49.2042 22.763C49.2042 22.3383 49.1459 21.9627 49.0292 21.636C48.9172 21.3047 48.7562 21.0457 48.5462 20.859C48.3362 20.6723 48.0889 20.579 47.8042 20.579C47.5195 20.579 47.2722 20.6747 47.0622 20.866C46.8522 21.0527 46.6912 21.3117 46.5792 21.643C46.4672 21.9697 46.4112 22.343 46.4112 22.763C46.4112 23.1783 46.4672 23.547 46.5792 23.869C46.6912 24.191 46.8499 24.4453 47.0552 24.632C47.2652 24.814 47.5149 24.905 47.8042 24.905ZM48.3992 15.266L41.5952 25.556L40.7202 25.549L47.5522 15.266H48.3992Z" fill="#32475C" fill-opacity="0.6"/> -->
<rect width="120" height="6" rx="3" fill="#EBEEF0"/>
<rect width="102" height="6" rx="3" fill="#71DD37"/>
</svg>
