<svg width="183" viewBox="0 0 183 5" fill="none" xmlns="http://www.w3.org/2000/svg">
<!-- <path d="M25.369 15.378H26.685V21.776H28.365V22.917H26.685V25.5H25.418V22.917H20.651V21.734L25.369 15.378ZM21.89 21.776H25.39V17.079L21.89 21.776ZM33.0217 25.654C32.4617 25.654 31.939 25.549 31.4537 25.339C30.973 25.1243 30.5694 24.821 30.2427 24.429C29.9207 24.037 29.7224 23.568 29.6477 23.022H30.9077C31.0244 23.484 31.267 23.8597 31.6357 24.149C32.0044 24.4337 32.4524 24.576 32.9797 24.576C33.577 24.576 34.088 24.4197 34.5127 24.107C34.942 23.7943 35.2617 23.3113 35.4717 22.658C35.6817 22.0047 35.761 21.167 35.7097 20.145C35.593 20.4997 35.4087 20.8123 35.1567 21.083C34.9047 21.349 34.6014 21.559 34.2467 21.713C33.892 21.867 33.5 21.944 33.0707 21.944C32.4034 21.944 31.8154 21.8133 31.3067 21.552C30.798 21.2907 30.4014 20.9173 30.1167 20.432C29.8367 19.9467 29.6967 19.3657 29.6967 18.689C29.6967 18.0123 29.8367 17.415 30.1167 16.897C30.3967 16.379 30.798 15.973 31.3207 15.679C31.8434 15.385 32.464 15.238 33.1827 15.238C33.9667 15.238 34.6457 15.441 35.2197 15.847C35.7937 16.2483 36.237 16.827 36.5497 17.583C36.8624 18.3343 37.0187 19.2373 37.0187 20.292C37.0187 21.426 36.8624 22.392 36.5497 23.19C36.2417 23.988 35.789 24.5993 35.1917 25.024C34.599 25.444 33.8757 25.654 33.0217 25.654ZM33.2107 20.845C33.584 20.845 33.9387 20.7587 34.2747 20.586C34.6107 20.4133 34.8837 20.1847 35.0937 19.9C35.3084 19.6107 35.4157 19.2957 35.4157 18.955C35.4204 18.4323 35.3317 17.9727 35.1497 17.576C34.9677 17.1747 34.7087 16.862 34.3727 16.638C34.0367 16.4093 33.6447 16.295 33.1967 16.295C32.786 16.295 32.422 16.393 32.1047 16.589C31.792 16.785 31.5447 17.058 31.3627 17.408C31.1854 17.758 31.0967 18.164 31.0967 18.626C31.0967 19.3027 31.2764 19.8417 31.6357 20.243C31.995 20.6443 32.52 20.845 33.2107 20.845ZM40.991 15.224C41.4437 15.224 41.8497 15.343 42.209 15.581C42.5683 15.819 42.8507 16.155 43.056 16.589C43.2613 17.023 43.364 17.534 43.364 18.122C43.364 18.71 43.2613 19.2187 43.056 19.648C42.8553 20.0773 42.5753 20.411 42.216 20.649C41.8567 20.8823 41.4483 20.999 40.991 20.999C40.529 20.999 40.116 20.8823 39.752 20.649C39.3927 20.411 39.108 20.0773 38.898 19.648C38.688 19.2187 38.583 18.71 38.583 18.122C38.583 17.534 38.688 17.023 38.898 16.589C39.108 16.155 39.3927 15.819 39.752 15.581C40.116 15.343 40.529 15.224 40.991 15.224ZM40.977 20.278C41.425 20.278 41.768 20.0797 42.006 19.683C42.2487 19.2863 42.37 18.766 42.37 18.122C42.37 17.4687 42.2487 16.9437 42.006 16.547C41.7633 16.1457 41.4203 15.945 40.977 15.945C40.6783 15.945 40.424 16.0383 40.214 16.225C40.0087 16.407 39.85 16.6613 39.738 16.988C39.6307 17.3147 39.577 17.6927 39.577 18.122C39.577 18.7613 39.6983 19.2817 39.941 19.683C40.1837 20.0797 40.529 20.278 40.977 20.278ZM47.326 19.851C47.7833 19.851 48.1917 19.9723 48.551 20.215C48.9103 20.453 49.1927 20.789 49.398 21.223C49.6033 21.657 49.706 22.1657 49.706 22.749C49.706 23.337 49.6033 23.848 49.398 24.282C49.1973 24.716 48.9173 25.052 48.558 25.29C48.1987 25.5233 47.788 25.64 47.326 25.64C46.864 25.64 46.451 25.5233 46.087 25.29C45.723 25.052 45.4383 24.716 45.233 24.282C45.0277 23.848 44.925 23.337 44.925 22.749C44.925 22.1657 45.0277 21.657 45.233 21.223C45.443 20.789 45.73 20.453 46.094 20.215C46.458 19.9723 46.8687 19.851 47.326 19.851ZM47.312 24.905C47.6013 24.905 47.851 24.814 48.061 24.632C48.271 24.4453 48.432 24.191 48.544 23.869C48.656 23.547 48.712 23.1783 48.712 22.763C48.712 22.3383 48.6537 21.9627 48.537 21.636C48.425 21.3047 48.264 21.0457 48.054 20.859C47.844 20.6723 47.5967 20.579 47.312 20.579C47.0273 20.579 46.78 20.6747 46.57 20.866C46.36 21.0527 46.199 21.3117 46.087 21.643C45.975 21.9697 45.919 22.343 45.919 22.763C45.919 23.1783 45.975 23.547 46.087 23.869C46.199 24.191 46.3577 24.4453 46.563 24.632C46.773 24.814 47.0227 24.905 47.312 24.905ZM47.907 15.266L41.103 25.556L40.228 25.549L47.06 15.266H47.907Z" fill="#32475C" fill-opacity="0.6"/> -->
<rect width="120" height="6" rx="3" fill="#EBEEF0"/>
<rect width="44" height="6" rx="3" fill="#FFAB00"/>
</svg>
