<svg width="183" viewBox="0 0 183 5" fill="none" xmlns="http://www.w3.org/2000/svg">
<!-- <path d="M22.604 25.5V17.443H20.651V16.596C21.2577 16.596 21.729 16.5517 22.065 16.463C22.401 16.3743 22.639 16.239 22.779 16.057C22.9237 15.875 23.003 15.6487 23.017 15.378H23.941V25.5H22.604ZM30.3802 15.238C31.0288 15.238 31.6098 15.3453 32.1232 15.56C32.6365 15.7747 33.0425 16.0873 33.3412 16.498C33.6398 16.9087 33.7892 17.408 33.7892 17.996C33.7892 18.5467 33.6398 19.0087 33.3412 19.382C33.0472 19.7553 32.6668 20.04 32.2002 20.236C32.5408 20.3013 32.8652 20.46 33.1732 20.712C33.4858 20.964 33.7425 21.2697 33.9432 21.629C34.1438 21.9883 34.2442 22.364 34.2442 22.756C34.2442 23.3393 34.0832 23.848 33.7612 24.282C33.4438 24.716 32.9958 25.0543 32.4172 25.297C31.8385 25.535 31.1595 25.654 30.3802 25.654C29.6055 25.654 28.9288 25.535 28.3502 25.297C27.7715 25.0543 27.3212 24.716 26.9992 24.282C26.6818 23.848 26.5232 23.3393 26.5232 22.756C26.5232 22.364 26.6212 21.9883 26.8172 21.629C27.0178 21.2697 27.2745 20.964 27.5872 20.712C27.8998 20.46 28.2265 20.3013 28.5672 20.236C28.1052 20.04 27.7225 19.7553 27.4192 19.382C27.1205 19.0087 26.9712 18.5467 26.9712 17.996C26.9712 17.408 27.1205 16.9087 27.4192 16.498C27.7178 16.0873 28.1238 15.7747 28.6372 15.56C29.1552 15.3453 29.7362 15.238 30.3802 15.238ZM30.3802 19.69C30.9962 19.69 31.4955 19.5383 31.8782 19.235C32.2655 18.9317 32.4592 18.5093 32.4592 17.968C32.4592 17.422 32.2655 16.9927 31.8782 16.68C31.4908 16.3627 30.9915 16.204 30.3802 16.204C29.7688 16.204 29.2695 16.3627 28.8822 16.68C28.4948 16.9973 28.3012 17.4267 28.3012 17.968C28.3012 18.5093 28.4948 18.9317 28.8822 19.235C29.2695 19.5383 29.7688 19.69 30.3802 19.69ZM30.3802 24.604C31.1315 24.604 31.7312 24.436 32.1792 24.1C32.6272 23.7593 32.8512 23.309 32.8512 22.749C32.8512 22.3803 32.7485 22.0513 32.5432 21.762C32.3425 21.4727 32.0578 21.2463 31.6892 21.083C31.3205 20.915 30.8842 20.831 30.3802 20.831C29.8808 20.831 29.4468 20.915 29.0782 21.083C28.7142 21.2463 28.4295 21.4727 28.2242 21.762C28.0235 22.0513 27.9232 22.3803 27.9232 22.749C27.9232 23.309 28.1448 23.7593 28.5882 24.1C29.0362 24.436 29.6335 24.604 30.3802 24.604ZM38.2156 15.224C38.6683 15.224 39.0743 15.343 39.4336 15.581C39.793 15.819 40.0753 16.155 40.2806 16.589C40.486 17.023 40.5886 17.534 40.5886 18.122C40.5886 18.71 40.486 19.2187 40.2806 19.648C40.08 20.0773 39.8 20.411 39.4406 20.649C39.0813 20.8823 38.673 20.999 38.2156 20.999C37.7536 20.999 37.3406 20.8823 36.9766 20.649C36.6173 20.411 36.3326 20.0773 36.1226 19.648C35.9126 19.2187 35.8076 18.71 35.8076 18.122C35.8076 17.534 35.9126 17.023 36.1226 16.589C36.3326 16.155 36.6173 15.819 36.9766 15.581C37.3406 15.343 37.7536 15.224 38.2156 15.224ZM38.2016 20.278C38.6496 20.278 38.9926 20.0797 39.2306 19.683C39.4733 19.2863 39.5946 18.766 39.5946 18.122C39.5946 17.4687 39.4733 16.9437 39.2306 16.547C38.988 16.1457 38.645 15.945 38.2016 15.945C37.903 15.945 37.6486 16.0383 37.4386 16.225C37.2333 16.407 37.0746 16.6613 36.9626 16.988C36.8553 17.3147 36.8016 17.6927 36.8016 18.122C36.8016 18.7613 36.923 19.2817 37.1656 19.683C37.4083 20.0797 37.7536 20.278 38.2016 20.278ZM44.5506 19.851C45.008 19.851 45.4163 19.9723 45.7756 20.215C46.135 20.453 46.4173 20.789 46.6226 21.223C46.828 21.657 46.9306 22.1657 46.9306 22.749C46.9306 23.337 46.828 23.848 46.6226 24.282C46.422 24.716 46.142 25.052 45.7826 25.29C45.4233 25.5233 45.0126 25.64 44.5506 25.64C44.0886 25.64 43.6756 25.5233 43.3116 25.29C42.9476 25.052 42.663 24.716 42.4576 24.282C42.2523 23.848 42.1496 23.337 42.1496 22.749C42.1496 22.1657 42.2523 21.657 42.4576 21.223C42.6676 20.789 42.9546 20.453 43.3186 20.215C43.6826 19.9723 44.0933 19.851 44.5506 19.851ZM44.5366 24.905C44.826 24.905 45.0756 24.814 45.2856 24.632C45.4956 24.4453 45.6566 24.191 45.7686 23.869C45.8806 23.547 45.9366 23.1783 45.9366 22.763C45.9366 22.3383 45.8783 21.9627 45.7616 21.636C45.6496 21.3047 45.4886 21.0457 45.2786 20.859C45.0686 20.6723 44.8213 20.579 44.5366 20.579C44.252 20.579 44.0046 20.6747 43.7946 20.866C43.5846 21.0527 43.4236 21.3117 43.3116 21.643C43.1996 21.9697 43.1436 22.343 43.1436 22.763C43.1436 23.1783 43.1996 23.547 43.3116 23.869C43.4236 24.191 43.5823 24.4453 43.7876 24.632C43.9976 24.814 44.2473 24.905 44.5366 24.905ZM45.1316 15.266L38.3276 25.556L37.4526 25.549L44.2846 15.266H45.1316Z" fill="#32475C" fill-opacity="0.6"/> -->
<rect width="120" height="6" rx="3" fill="#EBEEF0"/>
<rect width="31" height="6" rx="3" fill="#FF3E1D"/>
</svg>
