<svg width="183" viewBox="0 0 183 5" fill="none" xmlns="http://www.w3.org/2000/svg">
<!-- <path d="M20.651 15.378H27.756V16.498C27.3967 16.988 27.0397 17.5457 26.685 18.171C26.335 18.7917 26.0013 19.4427 25.684 20.124C25.3667 20.8007 25.082 21.4703 24.83 22.133C24.578 22.791 24.368 23.4117 24.2 23.995C24.0367 24.5737 23.9317 25.0753 23.885 25.5H22.478C22.5527 25.038 22.6857 24.4663 22.877 23.785C23.073 23.1037 23.3297 22.3593 23.647 21.552C23.9643 20.74 24.347 19.9023 24.795 19.039C25.243 18.1757 25.7563 17.3287 26.335 16.498H20.651V15.378ZM32.8138 15.238C33.4624 15.238 34.0434 15.3453 34.5568 15.56C35.0701 15.7747 35.4761 16.0873 35.7748 16.498C36.0734 16.9087 36.2228 17.408 36.2228 17.996C36.2228 18.5467 36.0734 19.0087 35.7748 19.382C35.4808 19.7553 35.1004 20.04 34.6338 20.236C34.9744 20.3013 35.2988 20.46 35.6068 20.712C35.9194 20.964 36.1761 21.2697 36.3768 21.629C36.5774 21.9883 36.6778 22.364 36.6778 22.756C36.6778 23.3393 36.5168 23.848 36.1948 24.282C35.8774 24.716 35.4294 25.0543 34.8508 25.297C34.2721 25.535 33.5931 25.654 32.8138 25.654C32.0391 25.654 31.3624 25.535 30.7838 25.297C30.2051 25.0543 29.7548 24.716 29.4328 24.282C29.1154 23.848 28.9568 23.3393 28.9568 22.756C28.9568 22.364 29.0548 21.9883 29.2508 21.629C29.4514 21.2697 29.7081 20.964 30.0208 20.712C30.3334 20.46 30.6601 20.3013 31.0008 20.236C30.5388 20.04 30.1561 19.7553 29.8528 19.382C29.5541 19.0087 29.4048 18.5467 29.4048 17.996C29.4048 17.408 29.5541 16.9087 29.8528 16.498C30.1514 16.0873 30.5574 15.7747 31.0708 15.56C31.5888 15.3453 32.1698 15.238 32.8138 15.238ZM32.8138 19.69C33.4298 19.69 33.9291 19.5383 34.3118 19.235C34.6991 18.9317 34.8928 18.5093 34.8928 17.968C34.8928 17.422 34.6991 16.9927 34.3118 16.68C33.9244 16.3627 33.4251 16.204 32.8138 16.204C32.2024 16.204 31.7031 16.3627 31.3158 16.68C30.9284 16.9973 30.7348 17.4267 30.7348 17.968C30.7348 18.5093 30.9284 18.9317 31.3158 19.235C31.7031 19.5383 32.2024 19.69 32.8138 19.69ZM32.8138 24.604C33.5651 24.604 34.1648 24.436 34.6128 24.1C35.0608 23.7593 35.2848 23.309 35.2848 22.749C35.2848 22.3803 35.1821 22.0513 34.9768 21.762C34.7761 21.4727 34.4914 21.2463 34.1228 21.083C33.7541 20.915 33.3178 20.831 32.8138 20.831C32.3144 20.831 31.8804 20.915 31.5118 21.083C31.1478 21.2463 30.8631 21.4727 30.6578 21.762C30.4571 22.0513 30.3568 22.3803 30.3568 22.749C30.3568 23.309 30.5784 23.7593 31.0218 24.1C31.4698 24.436 32.0671 24.604 32.8138 24.604ZM40.6492 15.224C41.1019 15.224 41.5079 15.343 41.8672 15.581C42.2266 15.819 42.5089 16.155 42.7142 16.589C42.9196 17.023 43.0222 17.534 43.0222 18.122C43.0222 18.71 42.9196 19.2187 42.7142 19.648C42.5136 20.0773 42.2336 20.411 41.8742 20.649C41.5149 20.8823 41.1066 20.999 40.6492 20.999C40.1872 20.999 39.7742 20.8823 39.4102 20.649C39.0509 20.411 38.7662 20.0773 38.5562 19.648C38.3462 19.2187 38.2412 18.71 38.2412 18.122C38.2412 17.534 38.3462 17.023 38.5562 16.589C38.7662 16.155 39.0509 15.819 39.4102 15.581C39.7742 15.343 40.1872 15.224 40.6492 15.224ZM40.6352 20.278C41.0832 20.278 41.4262 20.0797 41.6642 19.683C41.9069 19.2863 42.0282 18.766 42.0282 18.122C42.0282 17.4687 41.9069 16.9437 41.6642 16.547C41.4216 16.1457 41.0786 15.945 40.6352 15.945C40.3366 15.945 40.0822 16.0383 39.8722 16.225C39.6669 16.407 39.5082 16.6613 39.3962 16.988C39.2889 17.3147 39.2352 17.6927 39.2352 18.122C39.2352 18.7613 39.3566 19.2817 39.5992 19.683C39.8419 20.0797 40.1872 20.278 40.6352 20.278ZM46.9842 19.851C47.4416 19.851 47.8499 19.9723 48.2092 20.215C48.5686 20.453 48.8509 20.789 49.0562 21.223C49.2616 21.657 49.3642 22.1657 49.3642 22.749C49.3642 23.337 49.2616 23.848 49.0562 24.282C48.8556 24.716 48.5756 25.052 48.2162 25.29C47.8569 25.5233 47.4462 25.64 46.9842 25.64C46.5222 25.64 46.1092 25.5233 45.7452 25.29C45.3812 25.052 45.0966 24.716 44.8912 24.282C44.6859 23.848 44.5832 23.337 44.5832 22.749C44.5832 22.1657 44.6859 21.657 44.8912 21.223C45.1012 20.789 45.3882 20.453 45.7522 20.215C46.1162 19.9723 46.5269 19.851 46.9842 19.851ZM46.9702 24.905C47.2596 24.905 47.5092 24.814 47.7192 24.632C47.9292 24.4453 48.0902 24.191 48.2022 23.869C48.3142 23.547 48.3702 23.1783 48.3702 22.763C48.3702 22.3383 48.3119 21.9627 48.1952 21.636C48.0832 21.3047 47.9222 21.0457 47.7122 20.859C47.5022 20.6723 47.2549 20.579 46.9702 20.579C46.6856 20.579 46.4382 20.6747 46.2282 20.866C46.0182 21.0527 45.8572 21.3117 45.7452 21.643C45.6332 21.9697 45.5772 22.343 45.5772 22.763C45.5772 23.1783 45.6332 23.547 45.7452 23.869C45.8572 24.191 46.0159 24.4453 46.2212 24.632C46.4312 24.814 46.6809 24.905 46.9702 24.905ZM47.5652 15.266L40.7612 25.556L39.8862 25.549L46.7182 15.266H47.5652Z" fill="#32475C" fill-opacity="0.6"/> -->
<rect width="120" height="6" rx="3" fill="#EBEEF0"/>
<rect width="94" height="6" rx="3" fill="#71DD37"/>
</svg>
